<svg width="24" height="24" viewBox="0 0 24 24" fill="none" xmlns="http://www.w3.org/2000/svg">
<path d="M22.4308 10.6154H7.10769C6.69231 10.6154 6.50769 10.1077 6.78461 9.83078L11.2154 5.40001C11.4923 5.12309 11.4923 4.7077 11.2154 4.43078L10.2 3.41539C9.92308 3.13847 9.50769 3.13847 9.23077 3.41539L1.15384 11.5385C0.876921 11.8154 0.876921 12.2308 1.15384 12.5077L9.23077 20.5846C9.50769 20.8615 9.92308 20.8615 10.2 20.5846L11.1692 19.6154C11.4462 19.3385 11.4462 18.9231 11.1692 18.6462L6.73846 14.2154C6.46154 13.8923 6.64615 13.3846 7.06154 13.3846H22.3846C22.7538 13.3846 23.0769 13.1077 23.0769 12.7385V11.3539C23.0769 10.9846 22.8 10.6154 22.4308 10.6154Z" fill="#CCCCCC"/>
</svg>
