<svg width="64" height="64" viewBox="0 0 64 64" fill="none" xmlns="http://www.w3.org/2000/svg">
<path d="M27.41 16.754H26.707C25.883 16.754 25.216 17.366 25.216 18.122V23.916H28.902V18.122C28.901 17.367 28.234 16.754 27.41 16.754ZM37.292 16.754H36.588C35.765 16.754 35.098 17.366 35.098 18.122V23.916H38.783V18.122C38.783 17.367 38.116 16.754 37.292 16.754Z" fill="white"/>
<path d="M32 6.62097C17.687 6.62097 6.04303 18.265 6.04303 32.578C6.04303 39.488 8.72703 45.991 13.601 50.889C16.4951 53.7942 20.0341 55.9753 23.93 57.255C24.5603 57.4604 25.2464 57.4073 25.8376 57.1073C26.4287 56.8073 26.8767 56.285 27.083 55.655C27.185 55.343 27.2245 55.0139 27.1993 54.6866C27.1741 54.3593 27.0846 54.0402 26.936 53.7475C26.7874 53.4548 26.5826 53.1942 26.3333 52.9807C26.084 52.7672 25.7951 52.6048 25.483 52.503C22.3382 51.4686 19.4819 49.7069 17.146 47.361C15.2049 45.4206 13.6665 43.1156 12.6193 40.5786C11.5721 38.0416 11.0367 35.3226 11.044 32.578C11.044 21.022 20.445 11.621 32.001 11.621C43.557 11.621 52.958 21.022 52.958 32.578C52.958 38.178 50.78 43.437 46.824 47.394C45.306 48.758 41.538 51.498 39.276 51.498C38.114 51.498 37.245 51.132 36.539 50.347C34.75 48.354 34.358 44.318 34.374 41.508C38.713 41.289 42.167 37.712 42.167 33.318V25.538H21.833V33.318C21.833 37.625 25.151 41.151 29.37 41.495C29.344 44.845 29.814 50.335 32.811 53.679C34.463 55.524 36.699 56.498 39.276 56.498C44.112 56.498 49.617 51.613 50.228 51.057L50.309 50.981C55.241 46.073 57.957 39.538 57.957 32.578C57.957 18.265 46.313 6.62097 32 6.62097Z" fill="white"/>
</svg>
