<svg xmlns="http://www.w3.org/2000/svg" width="64" height="64" id="power-cord"><path d="M27.41 16.754h-.703c-.824 0-1.491.612-1.491 1.368v5.794h3.686v-5.794c-.001-.755-.668-1.368-1.492-1.368zm9.882 0h-.704c-.823 0-1.49.612-1.49 1.368v5.794h3.685v-5.794c0-.755-.667-1.368-1.491-1.368z"></path><path d="M32 6.621c-14.313 0-25.957 11.644-25.957 25.957 0 6.91 2.684 13.413 7.558 18.311a26.056 26.056 0 0 0 10.329 6.366 2.502 2.502 0 0 0 3.153-1.6 2.499 2.499 0 0 0-1.6-3.152 21.043 21.043 0 0 1-8.337-5.142 20.824 20.824 0 0 1-6.102-14.783c0-11.556 9.401-20.957 20.957-20.957s20.957 9.401 20.957 20.957c0 5.6-2.178 10.859-6.134 14.816-1.518 1.364-5.286 4.104-7.548 4.104-1.162 0-2.031-.366-2.737-1.151-1.789-1.993-2.181-6.029-2.165-8.839 4.339-.219 7.793-3.796 7.793-8.19v-7.78H21.833v7.78c0 4.307 3.318 7.833 7.537 8.177-.026 3.35.444 8.84 3.441 12.184 1.652 1.845 3.888 2.819 6.465 2.819 4.836 0 10.341-4.885 10.952-5.441l.081-.076c4.932-4.908 7.648-11.443 7.648-18.403C57.957 18.265 46.313 6.621 32 6.621z"></path></svg>